<mxfile host="app.diagrams.net" modified="2022-09-02T01:10:27.449Z" agent="5.0 (Windows NT 10.0; Win64; x64) AppleWebKit/537.36 (KHTML, like Gecko) Chrome/104.0.0.0 Safari/537.36" etag="OKDLzp7KdJXOQ-vkOTtv" version="20.2.8" type="github">
  <diagram id="R2lEEEUBdFMjLlhIrx00" name="Page-1">
    <mxGraphModel dx="1038" dy="539" grid="1" gridSize="10" guides="1" tooltips="1" connect="1" arrows="1" fold="1" page="1" pageScale="1" pageWidth="850" pageHeight="1100" background="#F1FAEE" math="0" shadow="0" extFonts="Permanent Marker^https://fonts.googleapis.com/css?family=Permanent+Marker">
      <root>
        <mxCell id="0" />
        <mxCell id="1" parent="0" />
        <mxCell id="RSAxXSTSyL7tXYLELwPJ-4" style="edgeStyle=orthogonalEdgeStyle;rounded=0;orthogonalLoop=1;jettySize=auto;html=1;entryX=0;entryY=0.5;entryDx=0;entryDy=0;labelBackgroundColor=#F1FAEE;strokeColor=#457B9D;fontColor=#1D3557;" edge="1" parent="1" source="RSAxXSTSyL7tXYLELwPJ-1" target="RSAxXSTSyL7tXYLELwPJ-3">
          <mxGeometry relative="1" as="geometry" />
        </mxCell>
        <mxCell id="RSAxXSTSyL7tXYLELwPJ-1" value="Aluno" style="rounded=0;whiteSpace=wrap;html=1;fillColor=#A8DADC;strokeColor=#457B9D;fontColor=#1D3557;" vertex="1" parent="1">
          <mxGeometry x="90" y="130" width="120" height="60" as="geometry" />
        </mxCell>
        <mxCell id="RSAxXSTSyL7tXYLELwPJ-5" style="rounded=0;orthogonalLoop=1;jettySize=auto;html=1;entryX=1;entryY=0.5;entryDx=0;entryDy=0;edgeStyle=orthogonalEdgeStyle;labelBackgroundColor=#F1FAEE;strokeColor=#457B9D;fontColor=#1D3557;" edge="1" parent="1" source="RSAxXSTSyL7tXYLELwPJ-2" target="RSAxXSTSyL7tXYLELwPJ-3">
          <mxGeometry relative="1" as="geometry" />
        </mxCell>
        <mxCell id="RSAxXSTSyL7tXYLELwPJ-2" value="Trabalho" style="rounded=0;whiteSpace=wrap;html=1;fillColor=#A8DADC;strokeColor=#457B9D;fontColor=#1D3557;" vertex="1" parent="1">
          <mxGeometry x="370" y="130" width="120" height="60" as="geometry" />
        </mxCell>
        <object label="Realiza" Realiza="" id="RSAxXSTSyL7tXYLELwPJ-3">
          <mxCell style="rhombus;whiteSpace=wrap;html=1;fontFamily=Verdana;fillColor=#A8DADC;strokeColor=#457B9D;fontColor=#1D3557;" vertex="1" parent="1">
            <mxGeometry x="250" y="50" width="80" height="40" as="geometry" />
          </mxCell>
        </object>
      </root>
    </mxGraphModel>
  </diagram>
</mxfile>
